<?xml version="1.0" encoding="UTF-8" standalone="no"?>
<!-- Created with Inkscape (http://www.inkscape.org/) -->

<svg
   xmlns:dc="http://purl.org/dc/elements/1.1/"
   xmlns:cc="http://creativecommons.org/ns#"
   xmlns:rdf="http://www.w3.org/1999/02/22-rdf-syntax-ns#"
   xmlns:svg="http://www.w3.org/2000/svg"
   xmlns="http://www.w3.org/2000/svg"
   xmlns:sodipodi="http://sodipodi.sourceforge.net/DTD/sodipodi-0.dtd"
   xmlns:inkscape="http://www.inkscape.org/namespaces/inkscape"
   width="128"
   height="128"
   viewBox="0 0 128 128"
   id="svg3352"
   version="1.1"
   inkscape:version="0.91 r13725"
   sodipodi:docname="dsa-lockup.svg">
  <defs
     id="defs3354" />
  <sodipodi:namedview
     id="base"
     pagecolor="#ffffff"
     bordercolor="#666666"
     borderopacity="1.0"
     inkscape:pageopacity="0.0"
     inkscape:pageshadow="2"
     inkscape:zoom="3.959798"
     inkscape:cx="93.321222"
     inkscape:cy="89.007047"
     inkscape:document-units="px"
     inkscape:current-layer="layer1"
     showgrid="false"
     inkscape:window-width="3200"
     inkscape:window-height="1745"
     inkscape:window-x="0"
     inkscape:window-y="55"
     inkscape:window-maximized="1"
     units="px" />
  <metadata
     id="metadata3357">
    <rdf:RDF>
      <cc:Work
         rdf:about="">
        <dc:format>image/svg+xml</dc:format>
        <dc:type
           rdf:resource="http://purl.org/dc/dcmitype/StillImage" />
        <dc:title></dc:title>
      </cc:Work>
    </rdf:RDF>
  </metadata>
  <g
     inkscape:label="Layer 1"
     inkscape:groupmode="layer"
     id="layer1"
     transform="translate(0,-924.3622)">
    <g
       id="g3429"
       transform="matrix(0.43913614,0,0,0.43913614,40.973258,547.09971)">
      <path
         id="path919"
         d="m 171.2988,1080.619 c -3.688,0.091 -36.216,0.897 -42.912,2.532 -4.751,1.168 -13.392,-0.897 -16.322,-1.789 -1.496,-0.466 -3.094,0.366 -3.558,1.846 -0.468,1.475 0.369,3.047 1.871,3.511 0.389,0.115 7.871,2.378 14.575,2.378 1.693,0 3.335,-0.144 4.806,-0.505 5.149,-1.255 31.83,-2.133 41.677,-2.365 1.568,-0.038 2.815,-1.321 2.775,-2.872 -0.036,-1.551 -1.356,-2.757 -2.914,-2.736"
         style="fill:#231f20"
         inkscape:connector-curvature="0" />
      <path
         id="path923"
         d="m 149.9348,1000.133 -6.664,-8.82501 16.698,-0.735 c -2.359,2.592 -5.732,5.991 -10.034,9.56001 z m -26.781,-7.93801 13.248,-0.584 9.068,12.01201 c -3.254,2.393 -6.915,4.75 -10.93,6.888 l -11.387,-18.31601 0,0 z m -58.564004,-9.424 0,-2.946 c 2.973,-2.6 12.973,-10.911 23.858,-15.336 l -11.395,24.121 -12.464,0.549 0,-6.388 0.001,0 z m -7.097,-6.993 c -0.879,0 -1.718,0.18 -2.493,0.468 -2.217,-2.664 -11.37899,-12.283 -29.77199,-15.649 -9.284,-14.657 -12.357,-27.989 -9.121,-39.626 2.659,-9.54 9.113,-15.969 13.669,-19.493 -0.852,8.754 -0.133,16.744 2.028,23.982 0.024,0.171 0.091,0.328 0.15,0.493 1.729,5.592 4.311,10.74 7.847,15.36 11.175,14.596 28.29899,20.33 37.45599,22.451 -8.914,5.166 -15.736,11.201 -17.176,12.515 -0.803,-0.313 -1.672,-0.501 -2.584,-0.501 l -0.004,0 z m -12.25799,40.83501 c 2.066,-1.472 3.774,-2.993 5.163,-4.455 l 0,8.064 c -1.021,-0.88 -2.725,-2.202 -5.159,-3.609 l -0.004,0 z m -79.001,-21.71701 23.8320002,0 -10.0360002,14.40001 c -7.127,-4.987 -11.488,-10.70801 -13.796,-14.39801 l 0,0 z m 13.998,-17.671 9.451,12.064 -22.279,0 c 2.83,-3.232 7.228,-7.776 12.828,-12.067 l 0,0 z m 70.163,5.546 0,6.518 -15.567,0 -8.656,-22.799 c 14.766,3.209 22.248,10.764 24.226,13.072 l 0,3.208 -0.003,0 z m -30.699,-17.33 9.057,23.849 -12.711,0 -5.216,-24.245 c 0.396,-0.012 0.79,-0.032 1.185,-0.032 2.729,0 5.275,0.162 7.685,0.426 l 0,0 z m -14.5649998,0.166 5.0939998,23.683 -13.3499998,0 -12.0130002,-15.346 c 5.8710002,-3.834 12.7310002,-7.062 20.2710002,-8.337 l -0.002,0 z m -12.439,50.27301 -0.764,-0.347 c -2.5750002,-0.954 -4.9130002,-2.059 -7.0770002,-3.248 l 12.1190002,-17.38501 11.51,0 -13.343,20.11501 c -0.029,0.044 -0.029,0.098 -0.06,0.146 -0.785,0.234 -1.578,0.476 -2.385,0.719 z m 10.702,-3.062 11.8829998,-17.92301 12.616,0 -9.196,15.53901 c -5.183,0.168 -10.1679998,1.07 -15.3029998,2.381 l 0,0 z m 35.8849998,0.947 c -3.788,-1.477 -8.495,-2.698 -14.09,-3.168 l 9.299,-15.70101 15.91,0 0,7.63601 c -0.704,1.51 -3.648,6.911 -11.098,11.219 -0.007,0.01 -0.01,0.014 -0.017,0.018 l -0.004,0 z M -9.7471938,938.82499 c 0,-9.974 4.909,-17.775 14.601,-23.186 3.083,-1.724 6.1869998,-2.926 8.7999998,-3.752 -1.191,2.289 -2.242,4.775 -3.01,7.518 -3.4129998,12.147 -0.9049998,25.669 7.411,40.246 -1.936,-0.154 -3.937,-0.25 -6.039,-0.25 -4.7429998,0 -9.2639998,0.728 -13.5289998,1.954 -5.44,-6.879 -8.234,-14.445 -8.234,-22.527 l 0,-0.003 z m 22.0839998,-50.974 c 4.635,-5.615 10.735,-8.41 16.325,-7.456 2.674,0.454 4.96,1.73 6.734,3.681 0.021,0.034 0.053,0.057 0.082,0.085 0.676,0.762 1.287,1.614 1.802,2.572 -1.042,0.618 -2.245,1.41 -3.245,2.276 -1.677,1.473 -2.578,3.491 -3.027,4.811 -2.336,1.352 -7.888,4.958 -12.833,11.123 -2.21,0.435 -7.206,1.617 -12.7019998,4.161 -0.218,-4.806 0.47,-13.507 6.8649998,-21.256 l -0.001,0.003 z m 53.01399,-15.699 c 13.021,0 20.546,6.985 23.874,11.135 -6.8,-0.114 -12.054,0.939 -12.5,1.036 -0.072,0.011 -0.124,0.06 -0.19,0.077 -0.102,0.03 -0.202,0.042 -0.299,0.082 -0.059,0.022 -0.103,0.072 -0.161,0.102 -0.026,0.009 -0.049,0.03 -0.074,0.044 -0.169,0.09 -0.327,0.18 -0.472,0.297 -0.057,0.046 -0.123,0.064 -0.184,0.115 -1.561,1.482 -3.089,2.749 -4.599,3.889 -2.384,-6.013 -6.814,-9.419 -12.615,-9.419 -7.81699,0 -12.36599,3.905 -14.74499,6.996 -0.593,-1.516 -1.315,-2.923 -2.182,-4.185 2.519,-3.143 9.751,-10.17 24.15099,-10.17 l -0.004,10e-4 z m 52.272004,39.52 c -0.131,3.875 -1.606,7.448 -4.267,10.563 -3.196,-19.23 -16.426004,-27.292 -19.214004,-28.787 -0.554,-1.269 -1.315,-2.438 -2.291,-3.491 -0.322,-0.348 -0.655,-0.676 -1.005,-0.985 6.172,0.305 13.321004,1.747 18.533004,6.147 5.437,4.584 8.443,10.617 8.244,16.553 l 0,0 z m 8.603,28.61 c 0,6.876 -4.146,13.462 -10.578,16.872 -3.077,-0.481 -6.285,-0.813 -9.628,-0.982 4.376,-4.92 8.061,-12.773 8.061,-25.304 0,-0.501 -0.053,-0.96 -0.063,-1.451 1.824,-1.49 3.422,-3.116 4.731,-4.873 2.826,2.616 7.477,8.081 7.477,15.738 l 0,0 z m 22.066,35.471 c 5.117,3.364 9.036,6.691 11.663,9.202 l -17.231,0.76 5.568,-9.964 0,0 z m -12.242,-6.693 c 2.643,1.182 5.121,2.428 7.404,3.723 l -7.395,13.224 -12.261,0.536 12.25,-17.484 0.002,10e-4 z m -16.716,-5.495 c 4.048,0.872 7.812,2.01 11.335,3.304 l -14.004,19.993 -16.728004,0.736 19.397004,-24.033 0,0 z m -62.769004,-28.483 c 5.898,0 10.872,-1.521 14.733,-3.37 14.189,-6.794 22.846,-22.089 23.813,-30.818 5.090004,4.095 13.273004,13.265 13.273004,29.977 0,12.122 -3.844,20.903 -11.126004,25.383 -0.018,0.01 -0.021,0.026 -0.039,0.035 -1.407,0.181 -2.819,0.469 -4.226,0.816 -0.07,0.023 -0.145,0.032 -0.209,0.058 -2.461,0.621 -4.897,1.464 -7.279,2.468 l -1.027,-0.234 c -0.056,-0.015 -0.106,0 -0.155,-0.01 -0.061,-0.011 -0.112,-0.043 -0.172,-0.053 -0.256,-0.024 -25.821,-3.098 -39.83399,-21.438 -1.589,-2.087 -2.971,-4.295 -4.153,-6.617 6.027,2.741 11.53,3.803 16.39799,3.803 l 0.003,-0.002 z m -21.43499,-27.329 c 4.396,3.618 11.404,8.247 18.77899,8.512 4.797,0.155 9.031,-1.463 12.631,-4.861 9.662,-9.113 12.492,-17.034 13.309,-21.262 2.328,0.396 5.715,1.333 7.791,3.585 1.471,1.602 2.083,3.664 1.853,6.302 -0.547,6.266 -7.927,20.531 -20.685,26.64 -9.83,4.703 -20.51699,3.536 -31.76199,-3.438 -1.347,-4.778 -1.992,-9.938 -1.918,-15.481 l 0.002,0.003 z m 12.094,-16.877 c 1.28,-2.036 4.496,-5.759 10.90499,-5.759 4.418,0 6.619,3.426 7.729,6.926 -3.873,2.016 -7.543,2.844 -10.977,2.371 -3.19899,-0.446 -5.76599,-1.957 -7.65699,-3.538 l 0,0 z m -9.407,2.324 c 0.624,-0.544 1.456,-1.094 2.247,-1.569 2.267,2.808 6.907,7.322 13.94299,8.326 0.947,0.134 1.902,0.203 2.862,0.203 4.962,0 10.124,-1.845 15.421,-5.423 -1.656,3.424 -4.562,7.781 -9.685,12.617 -2.483,2.336 -5.273,3.413 -8.479,3.305 -7.89199,-0.276 -15.93499,-7.53 -18.52199,-10.069 0.167,-1.437 0.361,-2.881 0.613,-4.359 0.098,-0.458 0.621,-2.174 1.596,-3.035 l 0.004,0.004 z m 45.64399,95.128 12.342,-26.121 c 1.764,-0.357 3.521,-0.569 5.235004,-0.569 4.169,0 8.134,0.302 11.912,0.819 l -20.562004,25.47 -8.93,0.394 0.003,0.01 z m 85.462004,0.053 c 0.11,-0.322 0.168,-0.658 0.154,-0.992 0,-0.011 0.007,-0.019 0.007,-0.03 0,-0.052 -0.033,-0.097 -0.036,-0.149 -0.031,-0.277 -0.093,-0.547 -0.208,-0.808 -0.047,-0.108 -0.108,-0.209 -0.172,-0.316 -0.063,-0.106 -0.103,-0.224 -0.179,-0.323 -0.779,-0.987 -16.116,-20.017 -45.202,-27.105 5.361,-4.697 8.633,-11.407 8.633,-18.376 0,-10.728 -6.921,-17.875 -10.295,-20.726 1.021,-2.445 1.595,-5.03 1.684,-7.698 0.257,-7.647 -3.469,-15.301 -10.225,-21 -4.877,-4.113 -10.925,-6.104 -16.685004,-6.983 -0.029,-0.063 -0.023,-0.132 -0.057,-0.196 -0.372,-0.702 -9.331,-17.133 -30.99,-17.133 -15.82099,0 -24.44899,7.449 -28.07199,11.664 -2.21,-1.688 -4.782,-2.854 -7.65,-3.341 -7.643,-1.307 -15.76,2.23 -21.7089998,9.448 -8.95,10.849 -8.49999998,23.069 -7.91499998,27.745 -8.00100002,5.047 -15.44400022,13.34 -15.44400022,26.766 0,8.782 2.78,17.01 8.2740002,24.5 -19.9400002,8.136 -32.9830002,26.174 -33.6800002,27.154 -0.094,0.133 -0.158,0.279 -0.224,0.422 -0.025,0.048 -0.054,0.089 -0.077,0.137 -0.125,0.307 -0.183,0.624 -0.193,0.949 0,0.036 -0.018,0.063 -0.018,0.1 0,0.037 0.018,0.073 0.018,0.108 0.018,0.319 0.06,0.635 0.186,0.939 l 0.015,0.036 c 0,0 0.007,0.01 0.01,0.013 0.418,1.014 7.001,16.16401 25.465,25.17001 -11.057,3.16 -23.753,6.03 -40.291,6.03 -1.572,0 -2.845,1.255 -2.845,2.805 0,1.551 1.273,2.806 2.845,2.806 21.386,0 36.436,-4.556 49.7140002,-8.576 9.634,-2.917 17.9589998,-5.437 26.6059998,-5.437 17.94,0 26.938,9.042 27.079,9.184 l 5.97699,5.885 c 0.558,0.546 1.284,0.825 2.01,0.825 0.732,0 1.458,-0.279 2.016,-0.825 1.113,-1.095 1.113,-2.873 0,-3.963 l -1.357,-1.334 0,-42.99301 c 0,-0.758 0.631,-1.38 1.406,-1.38 0.772,0 1.402,0.621 1.402,1.38 l 0,40.90701 c 0,1.55 1.274,2.802 2.845,2.802 1.572,0 2.847,-1.255 2.847,-2.802 l 0,-11.512 c 1.921,2.017 4.433,4.16 7.687,6.11 1.347,0.801 3.093,0.387 3.911,-0.939 0.815,-1.327 0.389,-3.048 -0.953,-3.854 -7.039,-4.219 -9.939,-9.488 -10.645,-10.961 l 0,-7.74701 12.884,-0.569 6.213,19.44201 c 0.385,1.196 1.511,1.96 2.717,1.96 0.281,0 0.575,-0.041 0.857,-0.129 1.496,-0.462 2.328,-2.037 1.858,-3.521 l -5.758,-18.01201 8.834,-0.389 10.249004,18.05001 c 0.521,0.919 1.491,1.436 2.487,1.436 0.469,0 0.947,-0.113 1.385,-0.355 1.373,-0.755 1.862,-2.465 1.1,-3.819 l -8.856004,-15.58801 18.103004,-0.798 12.756,20.52101 c -0.719,0.323 -1.433,0.649 -2.173,0.951 -1.455,0.596 -2.142,2.237 -1.538,3.668 0.455,1.078 1.515,1.726 2.63,1.726 0.362,0 0.733,-0.066 1.088,-0.209 1.88,-0.772 3.673,-1.606 5.425,-2.47 0.047,-0.025 0.1,-0.035 0.148,-0.063 0.01,-0.01 0.018,-0.019 0.028,-0.029 21.037,-10.417 32.998,-26.71401 33.538,-27.46201 0.1,-0.137 0.148,-0.294 0.221,-0.441 0.048,-0.096 0.107,-0.182 0.146,-0.288 l -0.011,0 z M -9.6291938,1096.914 c -16.7310002,-21.22 -45.6620002,-15.78 -46.8860002,-15.541 -1.539,0.305 -2.541,1.781 -2.23,3.304 0.308,1.512 1.82,2.498 3.35,2.196 0.27,-0.049 26.682,-5.023 41.272,13.482 1.252,1.589 2.69,3.116 4.2690002,4.533 0.549,0.491 1.233,0.736 1.918,0.736 0.772,0 1.542,-0.312 2.105,-0.919 1.059,-1.144 0.975,-2.918 -0.186,-3.959 -1.343,-1.204 -2.558,-2.498 -3.61,-3.831 m 120.6029938,-17.1 -0.772,-0.747 c -1.85,-1.817 -22.012004,-21.684 -37.314004,-36.759 -1.114,-1.094 -2.913,-1.094 -4.024,0 -1.114,1.098 -1.114,2.868 0,3.963 15.304,15.08 35.469004,34.95 37.312004,36.763 l 0.819,0.79 c 2.928,2.82 10.704,10.315 10.733,15.952 0.007,1.392 -0.482,2.524 -1.538,3.567 -1.531,1.508 -3.227,2.185 -4.991,2.21 -3.932,-0.043 -7.615,-3.357 -8.404,-4.115 -1.641,-1.688 -3.304004,-3.143 -4.588004,-4.258 -0.567,-0.494 -1.027,-0.895 -1.314,-1.171 l -12.303,-12.124 -4.025,3.964 12.305,12.122 c 0.346,0.34 0.889,0.821 1.567,1.41 2.649,2.307 8.860004,7.716 8.987004,11.798 0.031,1.011 -0.357,1.873 -1.209,2.719 -1.315,1.291 -2.657004,1.904 -4.095004,1.824 -2.933,-0.134 -5.897,-2.922 -6.789,-3.978 l -0.019,-0.015 c -0.79,-1.027 -1.673,-2.066 -2.755,-3.131 l -14.806,-14.595 -4.024,3.97 14.803,14.592 c 2.412,2.37 3.875,4.535 4.342,6.429 0.475,1.897 -0.07,3.479 -1.759,5.139 -2.801,2.767 -6.986,0.775 -8.399,-0.035 -0.688,-1.147 -1.506,-2.245 -2.501,-3.223 -3.437,-3.393 -12.259,-13.179 -12.35,-13.276 -1.042,-1.162 -2.841,-1.266 -4.013,-0.235 -1.177,1.023 -1.285,2.799 -0.238,3.96 0.365,0.406 9.017,10.009 12.578,13.515 1.467,1.444 2.465,3.257 2.739,4.974 0.294,1.831 -0.233,3.377 -1.603,4.731 -0.572,0.559 -1.221,0.763 -2.065,0.8 -1.909,-0.014 -6.405,-1.347 -15.039,-10.126 -1.091,-1.115 -2.89,-1.136 -4.02299,-0.06 -1.13,1.079 -1.153,2.855 -0.06,3.968 7.79099,7.92 14.03299,11.792 19.07999,11.827 l 0.077,0 c 2.334,0 4.425,-0.842 6.05,-2.441 2.175,-2.144 3.312,-4.83 3.328,-7.712 0.952,0.206 1.941,0.335 2.947,0.335 2.567,0 5.239,-0.79 7.517,-3.034 2.245,-2.209 3.439,-4.735 3.561,-7.416 0.981,0.327 2.01,0.583 3.112,0.634 0.171,0.012 0.342,0.014 0.51,0.014 2.873004,0 5.599004,-1.191 7.910004,-3.472 1.957,-1.929 2.951,-4.304 2.875,-6.861 -0.027,-0.701 -0.138,-1.396 -0.306,-2.087 0.742,0.144 1.509,0.235 2.292,0.245 l 0.178,0 c 3.333,0 6.344,-1.297 8.942,-3.858 2.138,-2.107 3.219,-4.65 3.203,-7.558 -0.047,-7.98 -8.735,-16.356 -12.446,-19.937"
         style="fill:#231f20"
         inkscape:connector-curvature="0" />
      <path
         id="path925"
         d="m 53.249796,1123.196 c -3.07999,7.559 -13.05899,17.204 -17.79699,17.204 -0.597,0 -0.874,-0.175 -1.105,-0.438 -2.181,-2.466 1.46,-9.267 8.847,-16.534 3.312,-3.258 6.58,-5.205 8.737,-5.205 0.72899,0 1.29699,0.224 1.83699,0.729 0.417,0.396 0.432,1.894 -0.523,4.244 l 0.004,0 z m -35.90999,8.892 c -3.564,-3.508 2.975,-13.102 11.031,-21.044 1.213,-1.197 2.807,-2.768 4.542,-4.277 0.074,-0.066 0.168,-0.109 0.236,-0.187 0.01,-0.01 0.018,-0.017 0.024,-0.032 2.859,-2.45 6.058,-4.665 8.492,-4.665 0.852,0 1.525,0.289 2.185,0.941 1.049,1.042 1.534,2.164 1.53,3.539 -0.019,5.496 -7.738,13.027 -11.034,16.247 l -0.798,0.779 c -0.407,0.399 -0.841,0.841 -1.307,1.314 -3.164,3.196 -8.458,8.549 -12.312,8.549 -0.964,0 -1.789,-0.372 -2.592,-1.168 l 0.003,0 z M 4.2478062,1121.372 c -3.31299998,-3.265 2.885,-12.304 10.4929998,-19.814 7.615,-7.487 12.284,-9.666 15.142,-7.064 1.077,0.989 3.287,3.024 -0.917,8.25 -1.56,1.368 -3.107,2.838 -4.622,4.328 -3.435,3.389 -7.663,8.068 -10.522,12.901 -2.385,1.979 -6.4809998,4.444 -9.5719998,1.4 l -0.002,0 z m -10.447,-11.61 c -1.45,-1.427 0.18,-4.704 1.279,-6.532 2.144,-3.545 5.44400002,-7.011 7.213,-8.757 l 0.728,-0.719 c 2.403,-2.386 6.421,-6.37 8.8539998,-6.37 0.306,0 0.686,0.063 1.174,0.52 0.504,0.472 0.73,1.023 0.736,1.788 0.046,3.452 -4.2049998,9.204 -8.4349998,13.375 l -1.018,1.021 c -2.204,2.226 -6.313,6.383 -9.004,6.379 -0.377,0 -0.898,-0.077 -1.529,-0.701 l 0,0 z m 58.1329998,2.851 c -0.873,0 -1.743,0.154 -2.599,0.373 1.048,-2.161 1.729,-4.392 1.736,-6.604 0.011,-2.88 -1.062,-5.409 -3.192,-7.514 -1.707,-1.697 -3.857,-2.595 -6.211,-2.595 -1.508,0 -3.023,0.365 -4.536,0.983 -0.087,-3.196 -1.862,-5.494 -3.388,-6.883 -4.532,-4.131 -9.775,-2.781 -14.301,-0.021 0.021,-0.242 0.042,-0.488 0.039,-0.733 -0.025,-2.27 -0.895,-4.272 -2.508,-5.779 -1.436,-1.356 -3.199,-2.067 -5.095,-2.067 -4.8009998,0 -9.2879998,4.447 -12.8899998,8.021 l -0.714,0.708 c -1.965,1.933 -5.625,5.78 -8.081,9.859 -4.3110002,7.139 -2.6060002,11.207 -0.4150002,13.361 1.5550002,1.536 3.4790002,2.35 5.5530002,2.35 0.959,0 1.898,-0.218 2.827,-0.52 -1.022,3.617 -0.698,7.058 2.06500002,9.779 2.08299998,2.056 4.60799998,3.077 7.32199998,3.074 1.042,0 2.114,-0.167 3.2009998,-0.47 -0.414,2.999 0.227,5.811 2.568,8.116 1.887,1.862 4.111,2.802 6.615,2.806 2.874,0 5.704,-1.301 8.323,-3.102 -0.61,2.842 -0.239,5.574 1.796,7.879 1.364,1.55 3.234,2.368 5.406,2.368 l 0.003,0 c 8.348,0 19.75299,-12.573 23.07299,-20.723 2.336,-5.739 0.842,-8.819 -0.825,-10.386 -1.588,-1.501 -3.588,-2.287 -5.77399,-2.287 l 0,0.01 z m -16.232,-53.882 c 0,-12.23 19.50199,-26.173 28.87599,-32.868 2.028,-1.456 3.637,-2.599 4.708,-3.477 6.435,-5.247 19.961,-8.38 36.183004,-8.38 12.522,0 22.862,5.689 29.333,10.46 8.113,5.995 33.75,6.093 36.57,6.095 1.573,0 2.845,-1.262 2.838,-2.809 0,-1.547 -1.275,-2.802 -2.845,-2.802 l -0.271,0 c -10.224,0 -27.958,-1.336 -32.881,-4.974 -7.165,-5.283 -18.659,-11.579 -32.745,-11.579 -17.769004,0 -32.280004,3.522 -39.813004,9.667 -0.934,0.761 -2.551,1.919 -4.427,3.254 -10.87999,7.78 -31.11099,22.238 -31.22099,37.283 -0.133,1.588 -1.062,15.295 5.23,22.08 2.382,2.571 5.44,3.879 9.084,3.879 3.206,0 5.798,-1.003 7.706,-2.974 4.09399,-4.237 3.72899,-11.758 3.43099,-17.797 -0.12,-2.348 -0.277,-5.567 0.03,-6.269 3.32,-4.202 10.501,-10.424 15.384,-10.424 1.572,0 2.848,-1.255 2.848,-2.803 0,-1.549 -1.275,-2.802 -2.849,-2.802 -8.157,0 -17.115,9.088 -19.87899,12.589 -1.614,2.044 -1.452,5.373 -1.224,9.984 0.234,4.704 0.547,11.15 -1.866,13.652 -0.513,0.526 -1.438,1.23 -3.585,1.23 -2.034,0 -3.581,-0.652 -4.879,-2.049 -4.023,-4.324 -4.075,-14.401 -3.757,-17.919 0.01,-0.084 0.015,-0.168 0.015,-0.252"
         style="fill:#231f20"
         inkscape:connector-curvature="0" />
    </g>
  </g>
</svg>
